<?xml version="1.0" encoding="UTF-8"?>
<svg xmlns="http://www.w3.org/2000/svg" width="132" height="71" viewBox="0 0 132 71" fill="none">
  <path d="M127.822 31.9675C124.576 29.3177 119.358 26.9544 111.251 27.5381C110.02 -1.61182 70.5288 -10.0018 57.5073 13.9935C47.2009 5.83001 30.6318 9.79061 25.2156 21.7644C16.2624 21.0232 8.53311 24.7839 4.39746 32.0206C4.81191 31.9233 5.24053 31.8737 5.68332 31.8737H5.68155C6.62203 31.872 7.49167 32.0542 8.28514 32.4186C10.9738 28.5163 15.3875 26.0045 20.0615 25.3871C19.7463 25.4313 19.4328 25.4844 19.1246 25.5428C21.8416 25.0033 24.6524 25.1324 27.403 25.5428C31.2428 13.8821 45.8354 9.30062 55.5307 16.8928C55.5307 16.8928 55.5307 16.8946 55.5324 16.8946C55.7308 17.0467 55.9239 17.1988 56.1134 17.3616H56.1152C56.6288 17.7808 58.0493 19.1305 58.5593 19.5975C59.4502 17.7773 60.5076 15.5997 61.6376 13.9971L61.8395 13.7034C62.6295 12.5837 63.5009 11.51 64.4537 10.5353C64.5618 10.4239 64.6698 10.316 64.7779 10.2098C64.7779 10.2081 64.7779 10.2081 64.7779 10.2063C65.2118 9.77822 65.6546 9.37314 66.1062 8.98929C66.108 8.98929 66.108 8.98752 66.108 8.98752C67.1016 8.14728 68.1555 7.39019 69.2713 6.73215C69.2713 6.73215 69.2713 6.73215 69.2713 6.73038C69.6326 6.51458 70.0028 6.31292 70.3676 6.12011C72.8561 4.82349 75.5784 3.99564 78.3555 3.62948C78.6389 3.5941 78.9223 3.56049 79.2075 3.53396C79.6857 3.48619 80.1639 3.45435 80.6439 3.43313C80.6403 3.43313 80.6368 3.43313 80.6332 3.4349C87.5549 3.11649 94.4961 5.69911 99.6448 10.3071C100.716 11.2747 101.715 12.3237 102.608 13.4593C103.819 14.9948 104.841 16.6788 105.642 18.4636C107.477 22.4419 107.967 26.8872 107.695 31.4563C109.129 31.2811 110.922 31.03 112.349 30.9857C112.133 30.9946 111.917 31.0052 111.699 31.0193C112.679 30.9592 113.66 30.9415 114.639 30.9769C114.43 30.968 114.221 30.9645 114.009 30.961C117.179 31.0017 120.392 31.6066 123.203 33.0925C124.207 32.3018 125.412 31.8684 126.687 31.8737H126.685C127.075 31.872 127.452 31.9038 127.817 31.9675H127.822ZM22.3534 25.1908C22.3145 25.1908 22.2755 25.1925 22.2383 25.1943C22.2773 25.1943 22.3145 25.1908 22.3534 25.1908ZM20.081 25.3836C20.1235 25.3783 20.166 25.373 20.2103 25.3677C20.1678 25.373 20.1253 25.3783 20.081 25.3836ZM20.5344 25.3252C20.5344 25.3252 20.5451 25.3252 20.5522 25.3234C20.4388 25.3376 20.3254 25.3517 20.2139 25.3677C20.3201 25.3517 20.4264 25.3376 20.5362 25.3252H20.5344ZM20.7204 25.3058C20.8125 25.2951 20.9028 25.2845 20.9949 25.2775C20.9028 25.2863 20.8107 25.2969 20.7204 25.3058ZM21.1809 25.2598C21.2606 25.2527 21.3403 25.2456 21.4183 25.2403C21.3332 25.2474 21.2464 25.2545 21.1614 25.2615C21.1667 25.2615 21.1738 25.2615 21.1791 25.2598H21.1809ZM21.714 25.2208C21.7388 25.2191 21.7654 25.2173 21.7902 25.2173C21.7654 25.2173 21.7388 25.2208 21.714 25.2208ZM112.585 30.9751C112.64 30.9734 112.693 30.9716 112.748 30.9698C112.693 30.9698 112.64 30.9716 112.585 30.9751ZM113.502 30.9592C113.594 30.9574 113.685 30.9592 113.777 30.9592C113.687 30.9592 113.594 30.9592 113.502 30.9592Z" fill="#D7E7F7"></path>
  <path d="M9.29772 41.3922C8.52904 42.3067 7.55844 42.7649 6.38417 42.7649C6.33812 42.7649 6.29207 42.7649 6.24425 42.7631C5.49682 42.7631 4.7919 42.5774 4.12949 42.2041C3.46708 41.8309 2.92865 41.3285 2.51419 40.6935C2.09974 40.0602 1.84293 39.3314 1.74197 38.5106C1.6357 37.6527 1.74197 36.8514 2.06255 36.1049C2.38136 35.3584 2.86843 34.7623 3.52375 34.3148C4.17731 33.8672 4.89817 33.6426 5.68279 33.6426C6.87832 33.6426 7.8985 34.0441 8.74512 34.8454C9.58996 35.6485 10.0912 36.6833 10.2471 37.9517C10.4118 39.2943 10.0947 40.4423 9.29772 41.3922Z" fill="#D7E7F7"></path>
  <path d="M10.3621 64.8691C9.96009 66.7725 9.47302 68.1151 8.89739 68.8987C8.18539 69.7938 7.10144 70.1777 5.6491 70.045C4.19498 69.9141 3.10572 69.3445 2.38486 68.338C1.98458 67.8162 1.66046 67.2377 1.41427 66.6027C1.16808 65.9694 0.985647 65.3998 0.868751 64.8957C0.750084 64.3915 0.610163 63.7866 0.448988 63.0772C-0.103612 59.7941 -0.14612 55.9521 0.321464 51.5492C0.482639 50.1323 0.718203 48.9295 1.02638 47.9406C1.33456 46.9518 1.71005 46.2159 2.15461 45.7295C2.59917 45.2448 2.92506 44.9282 3.13051 44.7778C3.33597 44.6292 3.62998 44.4612 4.01963 44.2754C4.08694 44.2418 4.15601 44.2118 4.22686 44.1852C5.02565 43.8704 5.95019 43.9181 6.99694 44.332C7.09967 44.3727 7.19886 44.4152 7.29627 44.4629C8.27926 44.9299 8.98949 45.7083 9.42874 46.7944C10.348 49.4071 10.8581 52.4284 10.9643 55.8601C11.0688 59.2935 10.8669 62.2954 10.3621 64.8691Z" fill="#D7E7F7"></path>
  <path d="M42.7055 41.8695C43.5574 46.9817 43.5503 52.0921 42.686 57.2025C42.4062 58.8812 41.9155 60.8128 41.2124 62.9939C40.5092 65.1768 39.7636 66.8643 38.9772 68.0583C38.4706 68.8048 37.8153 69.3921 37.0094 69.8219C36.2018 70.25 35.3977 70.4658 34.5954 70.4658C33.793 70.4658 32.996 70.2978 32.2078 69.9617C31.4197 69.6256 30.7785 69.1232 30.2844 68.451C29.4324 67.2959 28.8763 65.504 28.6159 63.0788C28.6018 62.9674 28.5486 61.9237 28.4548 59.9443C28.3042 59.9443 28.1253 59.9355 27.9181 59.916C27.7109 59.8983 27.493 59.87 27.2628 59.8311C27.0343 59.7939 26.8448 59.7745 26.696 59.7745C27.0095 63.5423 26.6269 66.2098 25.5501 67.7771C24.6043 69.1957 23.306 69.9687 21.6606 70.0996C20.0152 70.2305 18.5558 69.6804 17.2841 68.4492C14.9922 66.2116 13.6125 62.5924 13.1485 57.5934C12.3727 49.46 13.2654 42.8955 15.8264 37.8948C16.7917 36.0304 17.8721 34.7797 19.0641 34.1465C20.5784 33.4 22.0538 33.3257 23.4902 33.9218C24.9266 34.5197 25.9486 35.62 26.5579 37.2244C27.5692 39.9856 27.5798 43.5677 26.5897 47.9688L29.4395 48.8072C29.1402 42.7275 30.0506 38.4361 32.1724 35.9366C33.3573 34.6311 34.753 34.0615 36.3612 34.2296C37.9694 34.3976 39.2872 35.1724 40.3162 36.5522C41.5684 38.2309 42.3654 40.0033 42.7073 41.8678L42.7055 41.8695Z" fill="#D7E7F7"></path>
  <path d="M66.8832 50.7674C66.5768 49.798 66.1322 48.7632 65.5495 47.6612C64.9668 46.5609 64.1219 45.6181 63.0167 44.8344C61.9115 44.0508 60.6328 43.529 59.1822 43.2672C57.8804 43.0072 56.3979 43.0355 54.7384 43.3521C53.077 43.6687 51.738 44.2383 50.7179 45.0591C47.0091 48.0061 45.1121 52.3346 45.0289 58.0412C44.997 60.2045 45.454 62.2583 46.4016 64.197C47.3491 66.1375 48.6173 67.6304 50.2024 68.6741C51.1766 69.3091 52.381 69.6806 53.8138 69.7938C55.2467 69.9053 56.5467 69.8504 57.7157 69.6258C58.8829 69.4029 59.8535 69.0863 60.6239 68.6741C63.7181 67.1068 65.8223 64.6268 66.9363 61.2305C67.6696 58.9928 67.8732 56.5482 67.5474 53.9001C67.4092 52.7804 67.1878 51.7367 66.8814 50.7656H66.8832V50.7674ZM58.0132 57.2434C57.8326 57.7935 57.4907 58.1968 56.9895 58.4515C56.8638 58.5188 56.7061 58.5701 56.5166 58.6054C56.3271 58.6426 56.1163 58.6514 55.8843 58.632C55.6523 58.6143 55.4557 58.5541 55.2981 58.4498C55.0412 58.28 54.8358 58.0376 54.6817 57.7228C54.5276 57.4079 54.4532 57.0753 54.4585 56.7233C54.4727 55.7964 54.7791 55.0942 55.3813 54.6165C55.546 54.4839 55.7639 54.3919 56.0331 54.3388C56.3023 54.2875 56.5432 54.2822 56.7539 54.3247C56.9895 54.3671 57.1967 54.452 57.3756 54.5794C57.5545 54.7068 57.6927 54.8589 57.7865 55.0375C57.8804 55.2162 57.953 55.3842 58.0026 55.5417C58.0522 55.6991 58.0876 55.8689 58.1106 56.0494C58.1638 56.4792 58.1301 56.8754 58.0115 57.2381V57.2434H58.0132Z" fill="#D7E7F7"></path>
  <path d="M130.307 41.3922C129.538 42.3067 128.567 42.7649 127.393 42.7649C127.347 42.7649 127.301 42.7649 127.253 42.7631C126.506 42.7631 125.801 42.5774 125.138 42.2041C124.476 41.8309 123.937 41.3285 123.523 40.6935C123.109 40.0602 122.852 39.3314 122.751 38.5106C122.644 37.6527 122.751 36.8514 123.071 36.1049C123.39 35.3584 123.877 34.7623 124.533 34.3148C125.186 33.8672 125.907 33.6426 126.692 33.6426C127.887 33.6426 128.907 34.0441 129.754 34.8454C130.599 35.6485 131.1 36.6833 131.256 37.9517C131.421 39.2943 131.104 40.4423 130.307 41.3922Z" fill="#D7E7F7"></path>
  <path d="M131.371 64.8691C130.969 66.7725 130.482 68.1151 129.906 68.8987C129.194 69.7938 128.11 70.1777 126.658 70.045C125.204 69.9141 124.115 69.3445 123.394 68.338C122.993 67.8162 122.669 67.2377 122.423 66.6027C122.177 65.9694 121.994 65.3998 121.878 64.8957C121.759 64.3915 121.619 63.7866 121.458 63.0772C120.905 59.7941 120.863 55.9521 121.33 51.5492C121.491 50.1323 121.727 48.9295 122.035 47.9406C122.343 46.9518 122.719 46.2159 123.163 45.7295C123.608 45.2448 123.934 44.9282 124.139 44.7778C124.345 44.6292 124.639 44.4612 125.028 44.2754C125.096 44.2418 125.165 44.2118 125.236 44.1852C126.034 43.8704 126.959 43.9181 128.006 44.332C128.108 44.3727 128.208 44.4152 128.305 44.4629C129.288 44.9299 129.998 45.7083 130.438 46.7944C131.357 49.4071 131.867 52.4284 131.973 55.8601C132.078 59.2935 131.876 62.2954 131.371 64.8691Z" fill="#D7E7F7"></path>
  <path d="M93.947 35.2664C93.4776 34.4828 92.9197 33.9043 92.2768 33.5311C91.6339 33.1579 90.9307 32.9155 90.1709 32.8041C88.692 32.6183 87.5496 32.9067 86.7473 33.6708C85.9449 34.4368 85.4649 35.3973 85.3091 36.5524C84.8716 40.283 84.5988 43.2301 84.4908 45.3952C83.5733 44.6116 82.1989 44.0721 80.3693 43.7713C78.5397 43.4742 76.912 43.6033 75.4863 44.164C72.1069 45.5456 69.9709 48.0627 69.0747 51.7191C68.0191 56.1962 68.5469 60.3372 70.6581 64.1422C72.1494 66.8663 74.1118 68.6104 76.5401 69.3746C78.9684 70.1406 81.5153 69.8133 84.1809 68.3946C84.7742 68.0585 85.3923 67.611 86.0335 67.052C87.4256 68.9554 89.0923 69.9053 91.0352 69.9053C91.8252 69.9424 92.5194 69.6736 93.1216 69.0934C93.7221 68.5149 94.0497 67.8339 94.1029 67.0503C94.7564 60.2222 94.9495 50.541 94.6785 38.0065C94.6625 36.9628 94.4181 36.0483 93.9488 35.2646H93.947V35.2664ZM80.5216 57.2434C80.341 57.7935 79.9992 58.1968 79.4979 58.4516C79.3722 58.5188 79.2145 58.5701 79.025 58.6055C78.8355 58.6426 78.6247 58.6515 78.3927 58.632C78.1607 58.6143 77.9641 58.5542 77.8065 58.4498C77.5497 58.28 77.3442 58.0376 77.1901 57.7228C77.036 57.4079 76.9616 57.0754 76.9669 56.7233C76.9811 55.7964 77.2875 55.0942 77.8897 54.6166C78.0544 54.4839 78.2723 54.3919 78.5415 54.3388C78.8107 54.2875 79.0516 54.2822 79.2624 54.3247C79.4979 54.3671 79.7051 54.452 79.884 54.5794C80.0629 54.7068 80.2011 54.8589 80.2949 55.0376C80.3888 55.2162 80.4614 55.3843 80.511 55.5417C80.5606 55.6991 80.596 55.8689 80.6191 56.0494C80.6722 56.4792 80.6385 56.8755 80.5199 57.2381V57.2434H80.5216Z" fill="#D7E7F7"></path>
  <path d="M118.803 50.1515C117.338 47.6521 115.197 45.8796 112.379 44.8342C111.203 44.3866 109.945 44.1072 108.606 43.9957C107.266 43.8843 105.909 44.0046 104.533 44.3601C103.157 44.7157 101.89 45.2746 100.734 46.0388C99.5752 46.8047 98.5905 47.905 97.7775 49.3396C96.9646 50.776 96.4686 52.4458 96.2915 54.3474C96.1002 56.4365 96.3128 58.331 96.9344 60.0274C97.5544 61.7255 98.6454 63.4679 100.211 65.2598C101.12 66.2663 102.14 67.126 103.273 67.8336C104.405 68.5429 105.526 69.0648 106.632 69.4009C107.737 69.737 108.867 69.9598 110.02 70.0731C111.173 70.1845 112.211 70.1951 113.133 70.1013C114.056 70.0094 114.882 69.8219 115.615 69.5424C116.346 69.2629 116.97 68.8702 117.487 68.3678C118.148 67.7239 118.883 66.9704 119.088 66.0293C119.301 65.0546 119.138 63.9508 118.601 63.008C117.834 61.6636 116.339 60.6978 114.855 60.5899C114.207 60.5421 113.578 60.6465 112.942 60.7031C112.306 60.7597 111.642 60.7615 111.013 60.5244C110.223 60.2273 109.692 59.571 109.556 58.7697C112.884 58.8068 115.103 58.7697 116.21 58.6582C117.976 58.4354 119.092 57.4837 119.557 55.805C120.099 53.8273 119.848 51.9434 118.806 50.1533H118.803V50.1515ZM109.832 51.2589C109.809 51.0767 109.804 50.9086 109.814 50.7512C109.825 50.5938 109.857 50.4257 109.906 50.2471C109.958 50.0684 110.057 49.9163 110.204 49.7889C110.353 49.6615 110.539 49.5766 110.764 49.5342C110.964 49.4917 111.206 49.497 111.488 49.5483C111.77 49.5996 112.011 49.6916 112.209 49.8261C112.928 50.3037 113.408 51.0059 113.651 51.9328C113.743 52.2848 113.75 52.6174 113.674 52.9323C113.597 53.2471 113.45 53.4895 113.236 53.6593C113.103 53.7619 112.923 53.822 112.694 53.8415C112.466 53.8592 112.253 53.8503 112.055 53.815C111.856 53.7778 111.686 53.7265 111.545 53.6611C110.98 53.4063 110.54 53.0048 110.223 52.4529C110.014 52.0903 109.885 51.694 109.832 51.2642V51.2589Z" fill="#D7E7F7"></path>
</svg>
